<svg xmlns="http://www.w3.org/2000/svg" xmlns:xlink="http://www.w3.org/1999/xlink" viewBox="0 0 100 100"><defs><style>.cls-1{stroke:#fff;stroke-miterlimit:10;fill:url(#linear-gradient);}</style><linearGradient id="linear-gradient" x1="0.15" y1="50" x2="99.85" y2="50" gradientUnits="userSpaceOnUse"><stop offset="0" stop-color="#0070ba"/><stop offset="0.88" stop-color="#333b97"/></linearGradient></defs><g id="Layer_1" data-name="Layer 1"><path class="cls-1" d="M76.4,26.55A23.61,23.61,0,0,0,53.47,45.06h0a7.33,7.33,0,0,0-4.7-.68l-.14,0a5.66,5.66,0,0,0-2.09.68l0-.12A23.45,23.45,0,1,0,23.6,73.45,23.47,23.47,0,0,0,47,49.94l0-.18A2.59,2.59,0,0,1,47.63,48c.58-.59,1.64-.79,3.14-.6l.37.05h.28a2.05,2.05,0,0,1,.93.49A2.84,2.84,0,0,1,53,50l0,.37v.46h0A23.45,23.45,0,1,0,76.4,26.55ZM55.32,47a62,62,0,0,0,8.68.31c1.71,2,5.68,3.32,10.24,3.32,6.24,0,11.13-2.45,11.13-5.57v-.87H63.11v.16H63c-3.41,0-5.27-.07-6.28-.15A20.79,20.79,0,0,1,76.4,29.51,20.49,20.49,0,1,1,55.91,50.07,6,6,0,0,0,55.32,47ZM44.08,50.29h0A20.49,20.49,0,1,1,23.6,29.51,20.79,20.79,0,0,1,43.27,44.25c-.93.07-2.35.11-4.23.12v-.16H16.79v.87c0,3.12,4.88,5.57,11.12,5.57,4.57,0,8.54-1.3,10.24-3.32h.14a38.79,38.79,0,0,0,6.39-.3A5.9,5.9,0,0,0,44.08,50.29Z"/></g></svg>