<?xml version="1.0" encoding="utf-8"?>
<svg id="Layer_1" data-name="Layer 1" viewBox="0 0 784.8 250.5" xmlns="http://www.w3.org/2000/svg">
  <defs>
    <style>
      .cls-1 {
        fill: #fff;
      }

      .cls-2 {
        fill: #ff5e62;
      }
    </style>
  </defs>
  <g transform="matrix(1, 0, 0, 1, -20.150002, -172.400024)">
    <path class="cls-1" d="m109.29,274.11c8.58,5.07,15.36,11.93,20.36,20.58,5,8.65,7.5,17.97,7.5,27.97,0,3.43-.15,6.04-.45,7.83H41.39c1.94,9.25,6.6,16.97,13.98,23.16,7.38,6.19,15.92,9.28,25.62,9.28,5.67,0,11.04-1.08,16.11-3.24,1.01-.43,2-.9,2.96-1.41,7.45-3.94,16.42-3.69,23.39,1.04l.05.03c-5.37,6.12-11.75,10.89-19.13,14.32-7.38,3.43-15.18,5.15-23.38,5.15-10.14,0-19.5-2.53-28.08-7.61-8.58-5.07-15.4-11.89-20.47-20.47-5.07-8.58-7.61-17.93-7.61-28.08s2.53-19.54,7.61-28.19c5.07-8.65,11.89-15.47,20.47-20.47,8.58-5,17.93-7.49,28.08-7.49s19.72,2.54,28.3,7.61Zm-53.92,17.34c-7.38,6.04-11.97,13.76-13.76,23.16h78.98c-1.94-9.25-6.56-16.93-13.87-23.04-7.31-6.11-15.88-9.17-25.73-9.17s-18.23,3.02-25.62,9.06Z"/>
    <path class="cls-1" d="m155.26,287.65c4.17-6.49,9.62-11.6,16.33-15.33,6.71-3.73,14.02-5.59,21.93-5.59s15.25,1.9,22.04,5.71c6.78,3.8,12.23,8.95,16.33,15.44,4.1,6.49,6.38,13.61,6.82,21.37v69.13h0c-8.66,0-15.68-7-15.71-15.66l-.17-52.8c-.45-7.75-3.51-14.24-9.17-19.46-5.67-5.22-12.38-7.83-20.14-7.83s-14.43,2.65-20.02,7.94c-5.59,5.3-8.69,11.75-9.28,19.35v68.46h-15.88v-69.13c.45-7.9,2.76-15.1,6.93-21.59Z"/>
    <path class="cls-1" d="m334.13,274c8.57,5,15.36,11.78,20.36,20.36,5,8.58,7.49,17.94,7.49,28.08v44.52c0,10.14-2.5,19.5-7.49,28.08-5,8.57-11.78,15.36-20.36,20.36-8.58,5-17.94,7.49-28.08,7.49h-29.76c0-8.65,7.01-15.66,15.66-15.66h14.09c8.95-.15,17-2.91,24.16-8.28,7.16-5.37,12-12.23,14.54-20.58h-38.7c-10.14,0-19.5-2.5-28.08-7.49-8.58-5-15.4-11.78-20.47-20.36-5.07-8.57-7.61-17.93-7.61-28.08s2.53-19.5,7.61-28.08c5.07-8.58,11.89-15.36,20.47-20.36,8.58-5,17.93-7.49,28.08-7.49s19.5,2.5,28.08,7.49Zm6.6,28.3c-3.58-6.11-8.43-10.96-14.54-14.54-6.12-3.58-12.83-5.37-20.14-5.37s-14.02,1.79-20.13,5.37c-6.12,3.58-11,8.43-14.65,14.54-3.66,6.12-5.48,12.83-5.48,20.14s1.83,14.02,5.48,20.14c3.65,6.12,8.54,11,14.65,14.65,6.11,3.66,12.83,5.48,20.13,5.48h40.05v-40.27c0-7.31-1.79-14.02-5.37-20.14Z"/>
    <path class="cls-1" d="m389.05,282.39h0s-15.88,0-15.88,0v-15.88h0c8.77,0,15.88,7.11,15.88,15.88Zm0,28.47v67.51h-15.88v-83.39h0c8.77,0,15.88,7.11,15.88,15.88Z"/>
    <path class="cls-1" d="m407.17,287.65c4.17-6.49,9.62-11.6,16.33-15.33,6.71-3.73,14.02-5.59,21.93-5.59s15.25,1.9,22.04,5.71c6.78,3.8,12.23,8.95,16.33,15.44,4.1,6.49,6.38,13.61,6.82,21.37v69.13h0c-8.66,0-15.68-7-15.71-15.66l-.17-52.8c-.45-7.75-3.51-14.24-9.17-19.46-5.67-5.22-12.38-7.83-20.14-7.83s-14.43,2.65-20.02,7.94c-5.59,5.3-8.69,11.75-9.28,19.35v68.46h-15.88v-69.13c.45-7.9,2.76-15.1,6.93-21.59Z"/>
    <path class="cls-1" d="m756.29,294.36c5-8.58,11.82-15.36,20.47-20.36,8.65-5,18.04-7.49,28.19-7.49h0c0,8.17-5.27,15.34-13.01,17.98-2.46.84-4.84,1.93-7.13,3.27-6.12,3.58-11,8.43-14.65,14.54-3.66,6.12-5.48,12.83-5.48,20.14v55.93h-15.88v-55.93c0-10.14,2.5-19.5,7.5-28.08Z"/>
  </g>
  <g transform="matrix(1, 0, 0, 1, -20.150002, -172.400024)">
    <path class="cls-1" d="m27.6,240.9h-7.45l28.88-66.81h6.61l28.69,66.81h-7.55l-7.36-17.55h-34.54l-7.27,17.55Zm9.81-23.78h29.44l-14.72-35.48-14.72,35.48Z"/>
    <path class="cls-1" d="m94.13,174.09h18.87c3.4,0,6.48.36,9.25,1.08,2.77.72,5.14,1.83,7.12,3.3,1.98,1.48,3.51,3.33,4.58,5.57,1.07,2.23,1.6,4.86,1.6,7.88s-.55,5.65-1.65,7.88c-1.1,2.23-2.64,4.09-4.62,5.57-1.98,1.48-4.37,2.6-7.17,3.35-2.8.76-5.9,1.13-9.3,1.13h-11.89v31.05h-6.79v-66.81Zm6.79,30.01h11.51c5.35,0,9.4-1.04,12.17-3.11,2.77-2.08,4.15-5.1,4.15-9.06s-1.43-7.19-4.29-9.11c-2.86-1.92-6.87-2.88-12.03-2.88h-11.51v24.16Z"/>
    <path class="cls-1" d="m148.86,174.09h18.87c3.4,0,6.48.36,9.25,1.08,2.77.72,5.14,1.83,7.12,3.3,1.98,1.48,3.51,3.33,4.58,5.57,1.07,2.23,1.61,4.86,1.61,7.88s-.55,5.65-1.65,7.88c-1.1,2.23-2.64,4.09-4.62,5.57-1.98,1.48-4.37,2.6-7.17,3.35-2.8.76-5.9,1.13-9.3,1.13h-11.89v31.05h-6.79v-66.81Zm6.79,30.01h11.51c5.35,0,9.4-1.04,12.17-3.11,2.77-2.08,4.15-5.1,4.15-9.06s-1.43-7.19-4.29-9.11c-2.86-1.92-6.87-2.88-12.03-2.88h-11.51v24.16Z"/>
    <path class="cls-2" d="m235.96,184.84c-1.45-2.01-3.3-3.63-5.57-4.86-2.26-1.23-5-1.84-8.21-1.84-1.64,0-3.3.25-5,.75-1.7.5-3.24,1.27-4.62,2.31-1.39,1.04-2.5,2.35-3.35,3.92-.85,1.57-1.27,3.43-1.27,5.57s.41,3.9,1.22,5.29,1.9,2.56,3.25,3.54c1.35.98,2.89,1.78,4.61,2.41,1.72.63,3.53,1.26,5.41,1.89,2.32.76,4.66,1.57,7.01,2.45,2.35.88,4.47,2.03,6.35,3.44,1.88,1.42,3.42,3.21,4.61,5.38,1.19,2.17,1.79,4.92,1.79,8.26s-.64,6.21-1.91,8.64c-1.27,2.42-2.92,4.42-4.95,5.99-2.03,1.57-4.35,2.74-6.96,3.49-2.61.75-5.24,1.13-7.88,1.13-2.01,0-4.03-.2-6.04-.61-2.02-.41-3.93-1.02-5.76-1.84-1.83-.82-3.52-1.86-5.1-3.11-1.57-1.26-2.96-2.7-4.15-4.34l5.85-4.34c1.45,2.39,3.48,4.39,6.09,5.99,2.61,1.61,5.68,2.41,9.2,2.41,1.7,0,3.43-.27,5.19-.8,1.76-.53,3.35-1.35,4.76-2.45,1.42-1.1,2.58-2.45,3.49-4.06.91-1.6,1.37-3.47,1.37-5.61,0-2.33-.46-4.26-1.37-5.8-.91-1.54-2.12-2.83-3.63-3.87s-3.24-1.9-5.19-2.6c-1.95-.69-4-1.38-6.13-2.08-2.2-.69-4.37-1.48-6.51-2.36-2.14-.88-4.06-2.03-5.76-3.45-1.7-1.41-3.07-3.16-4.11-5.24-1.04-2.08-1.56-4.62-1.56-7.64,0-3.21.64-5.98,1.93-8.3,1.29-2.33,2.97-4.25,5.05-5.76,2.08-1.51,4.37-2.61,6.89-3.3,2.52-.69,5-1.04,7.46-1.04,4.53,0,8.4.8,11.61,2.41,3.21,1.6,5.63,3.51,7.27,5.71l-5.38,4.34Z"/>
    <path class="cls-2" d="m263.61,234.86h35.77v6.04h-42.56v-66.81h41.43v6.04h-34.63v22.93h32.37v6.04h-32.37v25.76Z"/>
    <path class="cls-2" d="m368.92,230.05c-1.13,1.7-2.5,3.3-4.1,4.82-1.61,1.51-3.46,2.85-5.57,4-2.11,1.15-4.44,2.06-6.98,2.73-2.55.67-5.33,1.01-8.35,1.01-5.03,0-9.69-.88-13.97-2.64-4.28-1.76-7.96-4.2-11.04-7.31-3.08-3.11-5.49-6.81-7.22-11.09-1.73-4.28-2.6-8.97-2.6-14.06s.88-9.78,2.64-14.06c1.76-4.28,4.2-7.97,7.31-11.09,3.11-3.11,6.79-5.55,11.04-7.31,4.25-1.76,8.85-2.64,13.82-2.64,2.45,0,4.86.26,7.22.77,2.36.51,4.58,1.23,6.65,2.16,2.08.93,3.96,2.04,5.66,3.34,1.7,1.3,3.11,2.77,4.25,4.4l-5.66,4.15c-.69-1.07-1.62-2.14-2.78-3.21-1.17-1.07-2.53-2.01-4.11-2.83-1.57-.82-3.29-1.48-5.14-1.98-1.86-.5-3.86-.75-5.99-.75-4.34,0-8.23.78-11.65,2.35-3.43,1.57-6.34,3.68-8.73,6.35-2.39,2.67-4.21,5.75-5.47,9.27-1.26,3.51-1.89,7.21-1.89,11.1s.64,7.59,1.93,11.1c1.29,3.51,3.13,6.6,5.52,9.26,2.39,2.67,5.3,4.78,8.73,6.35,3.43,1.57,7.28,2.35,11.56,2.35,3.84,0,7.49-.79,10.95-2.36,3.46-1.57,6.35-4.09,8.68-7.55l5.28,3.4Z"/>
  </g>
  <path class="cls-1" d="M 663.04 90.26 C 634.78 90.26 609.9 110.28 603.89 137.85 C 603.52 139.53 603.94 141.25 605.04 142.59 C 606.98 144.96 609.15 145.72 626.87 145.42 C 632.57 153.05 644.07 158.27 657.34 158.27 C 676.28 158.27 691.63 147.64 691.63 134.53 L 623.05 134.53 C 623.05 134.6 623.05 134.67 623.05 134.74 C 619.92 134.76 617.59 134.74 615.88 134.69 C 622.68 114.86 641.68 100.98 663.03 100.98 C 690.5 100.98 712.84 123.33 712.84 150.79 C 712.84 178.25 690.49 200.6 663.03 200.6 C 633.29 200.6 621.09 175.84 618.79 162.74 L 618.72 162.74 C 618.28 161.26 617.23 158.15 615.24 154.98 C 611.32 148.72 605.86 145.42 599.44 145.42 C 587.27 145.42 581.92 156.7 580.79 162.74 C 578.5 175.83 566.3 200.6 536.55 200.6 C 509.08 200.6 486.74 178.25 486.74 150.79 C 486.74 123.33 509.09 100.98 536.55 100.98 C 557.9 100.98 576.91 114.86 583.7 134.69 C 581.99 134.74 579.66 134.76 576.53 134.74 C 576.53 134.67 576.53 134.6 576.53 134.53 L 507.95 134.53 C 507.95 147.64 523.3 158.27 542.24 158.27 C 555.51 158.27 567.01 153.05 572.71 145.42 C 590.43 145.72 592.6 144.96 594.54 142.59 C 595.64 141.26 596.05 139.53 595.69 137.85 C 589.68 110.27 564.81 90.26 536.54 90.26 C 503.16 90.26 476 117.42 476 150.8 C 476 184.18 503.16 211.34 536.54 211.34 C 569.92 211.34 587.36 187.17 591.33 164.68 C 591.47 164.03 593.25 156.16 599.44 156.16 C 605.98 156.16 608.51 166.06 608.53 166.14 C 613.04 188.2 631.73 211.34 663.03 211.34 C 696.41 211.34 723.57 184.18 723.57 150.8 C 723.57 117.42 696.41 90.26 663.03 90.26 L 663.04 90.26 Z"/>
</svg>