<?xml version="1.0" standalone="no"?>
<!DOCTYPE svg PUBLIC "-//W3C//DTD SVG 20010904//EN"
 "http://www.w3.org/TR/2001/REC-SVG-20010904/DTD/svg10.dtd">
<svg version="1.0" xmlns="http://www.w3.org/2000/svg"
 width="700.000000pt" height="700.000000pt" viewBox="0 0 700.000000 700.000000"
 preserveAspectRatio="xMidYMid meet">
<metadata>
Created by potrace 1.14, written by Peter Selinger 2001-2017
</metadata>
<g transform="translate(0.000000,700.000000) scale(0.100000,-0.100000)"
fill="#000000" stroke="none">
<path d="M1558 5175 c-2 -2 -38 -5 -80 -9 -43 -4 -83 -8 -90 -11 -7 -2 -29 -7
-48 -10 -19 -3 -48 -8 -65 -11 -16 -3 -83 -23 -148 -44 -569 -189 -996 -670
-1116 -1258 -18 -86 -14 -587 5 -680 40 -202 146 -443 272 -622 117 -166 324
-358 500 -464 353 -212 777 -289 1177 -212 514 100 952 433 1184 903 114 231
167 448 176 714 4 151 39 182 192 177 134 -5 153 -27 158 -184 22 -709 464
-1317 1125 -1547 225 -78 457 -106 715 -85 568 47 1110 431 1354 960 36 78 95
240 105 290 3 13 8 34 13 48 13 45 16 638 2 715 -29 169 -133 418 -245 586
-238 356 -609 611 -1025 703 -102 23 -119 26 -199 33 -365 33 -715 -44 -1025
-228 -155 -91 -344 -255 -456 -394 -118 -147 -224 -346 -287 -537 l-37 -113
-55 19 c-85 29 -276 26 -345 -6 -14 -6 -27 -9 -28 -7 -2 2 -16 44 -31 94 -186
604 -716 1065 -1331 1159 -11 2 -39 6 -62 10 -39 7 -299 16 -305 11z m267
-288 c11 -3 41 -8 67 -11 185 -25 464 -152 632 -288 133 -108 279 -282 358
-428 40 -72 84 -175 90 -204 3 -19 -14 -19 -916 -17 l-919 3 5 -84 c6 -104 29
-154 106 -226 97 -91 297 -173 488 -199 93 -13 391 -9 469 6 213 40 362 101
455 186 23 21 37 23 195 29 94 3 181 8 193 10 19 4 23 2 17 -12 -7 -18 -12
-84 -19 -237 -23 -493 -334 -957 -788 -1173 -218 -104 -399 -143 -638 -137
-74 2 -151 6 -170 10 -333 57 -596 196 -814 427 -189 200 -308 433 -362 713
-26 134 -24 377 5 514 61 289 180 511 386 716 224 225 480 354 787 399 85 13
321 14 373 3z m3725 -2 c90 -13 240 -56 332 -93 406 -166 713 -522 823 -954
31 -122 40 -212 39 -363 -4 -364 -147 -699 -409 -960 -282 -281 -623 -419
-1015 -410 -142 3 -149 4 -273 30 -280 58 -554 221 -757 450 -138 155 -264
408 -309 620 -19 87 -22 108 -26 195 -12 207 -14 237 -21 255 -7 17 -3 18 42
11 27 -4 148 -9 269 -12 191 -4 223 -7 240 -22 115 -100 309 -174 515 -199
126 -15 373 -9 470 12 14 3 41 8 60 11 65 13 202 63 264 98 92 52 151 108 186
180 27 55 31 71 28 135 l-3 74 -790 -3 c-434 -1 -866 -3 -960 -5 -93 -1 -185
0 -203 2 -28 5 -32 8 -26 27 6 20 47 116 63 146 37 71 109 190 120 200 3 3 26
31 50 63 144 189 403 368 654 452 104 35 114 37 247 60 76 13 306 13 390 0z"/>
</g>
</svg>
